<svg version="1" xmlns="http://www.w3.org/2000/svg" width="682.667" height="682.667" viewBox="0 0 512.000000 512.000000"><path d="M77.3 61.8l-2.3.3V447h60.7v-70.8c.1-38.9.2-71.4.2-72.2.1-1.3 2.9-1.5 18.4-1.6 24.9-.1 31.8-.8 45.2-4.6 19.1-5.4 34.9-18.3 43.7-35.6 2.6-5 4.5-9.2 4.3-9.2-.3 0-.1-.9.5-2 1.7-3.1 5-19.3 5.7-27.9.9-9.6.9-70.9.1-81.6-3.8-48.1-30.6-75.4-77.5-79.1-8.6-.7-94.8-1.2-99-.6zm98.5 57.1c8.4 2.9 12.3 7 15.8 16.6 1.5 4.4 1.8 9.6 2 43.6.1 21.6-.3 41-.8 44-2.2 12.3-8 19.7-17.5 22.5-4.6 1.3-22.6 2.1-37.8 1.5-2-.1-2-.8-2-65.2v-65l17.7.2c13.4.1 18.9.6 22.6 1.8zM269.3 62c-1.7.5-1.8 2.2-1.8 27.5v27l31.7.3 31.6.2v161.8c.1 88.9.1 163.2.1 165l.1 3.2 30.3-.2 30.2-.3V117h63.3V89.5c0-20.2-.3-27.5-1.1-27.6-6.5-.3-183-.3-184.4.1z"/></svg>