<svg xmlns="http://www.w3.org/2000/svg" viewBox="0 0 22.59 22.59"><defs><style>.cls-1{fill:#fff;}</style></defs><g id="Layer_2" data-name="Layer 2"><g id="OBJECTS"><path class="cls-1" d="M11.29,2c3,0,3.38,0,4.57.07a6.4,6.4,0,0,1,2.1.39,3.48,3.48,0,0,1,1.29.84,3.62,3.62,0,0,1,.85,1.3,6.4,6.4,0,0,1,.39,2.1c.05,1.19.06,1.55.06,4.56s0,3.38-.06,4.57A6.4,6.4,0,0,1,20.1,18,3.84,3.84,0,0,1,18,20.1a6.4,6.4,0,0,1-2.1.39c-1.19.05-1.55.06-4.57.06s-3.37,0-4.56-.06a6.4,6.4,0,0,1-2.1-.39,3.62,3.62,0,0,1-1.3-.85A3.48,3.48,0,0,1,2.49,18a6.4,6.4,0,0,1-.39-2.1C2.05,14.67,2,14.31,2,11.29s0-3.37.07-4.56a6.4,6.4,0,0,1,.39-2.1A3.68,3.68,0,0,1,4.63,2.49a6.4,6.4,0,0,1,2.1-.39C7.92,2.05,8.28,2,11.29,2m0-2C8.23,0,7.84,0,6.64.07A8.12,8.12,0,0,0,3.9.59a5.42,5.42,0,0,0-2,1.31,5.42,5.42,0,0,0-1.31,2A8.12,8.12,0,0,0,.07,6.64C0,7.84,0,8.23,0,11.29S0,14.75.07,16a8.17,8.17,0,0,0,.52,2.74,5.42,5.42,0,0,0,1.31,2A5.42,5.42,0,0,0,3.9,22a8.12,8.12,0,0,0,2.74.52c1.2.06,1.59.07,4.65.07s3.46,0,4.66-.07A8.17,8.17,0,0,0,18.69,22,5.86,5.86,0,0,0,22,18.69,8.43,8.43,0,0,0,22.52,16c.06-1.2.07-1.59.07-4.66s0-3.45-.07-4.65A8.37,8.37,0,0,0,22,3.9a5.42,5.42,0,0,0-1.31-2,5.42,5.42,0,0,0-2-1.31A8.17,8.17,0,0,0,16,.07C14.75,0,14.36,0,11.29,0"/><path class="cls-1" d="M11.29,5.49a5.8,5.8,0,1,0,5.8,5.8,5.8,5.8,0,0,0-5.8-5.8m0,9.57a3.77,3.77,0,1,1,3.77-3.77,3.76,3.76,0,0,1-3.77,3.77"/><path class="cls-1" d="M18.68,5.27a1.36,1.36,0,1,1-1.36-1.36,1.36,1.36,0,0,1,1.36,1.36"/></g></g></svg>