<svg xmlns="http://www.w3.org/2000/svg" viewBox="0 0 22.59 18.68"><defs><style>.cls-1{fill:#fff;}</style></defs><g id="Layer_2" data-name="Layer 2"><g id="OBJECTS"><path class="cls-1" d="M1.38,8.13s10-4.1,13.46-5.54C16.17,2,20.67.16,20.67.16s2.08-.8,1.91,1.16c-.06.81-.52,3.64-1,6.7-.7,4.33-1.45,9.07-1.45,9.07s-.11,1.32-1.09,1.55-2.6-.8-2.89-1-4.33-2.77-5.83-4a1.09,1.09,0,0,1,.05-1.85c2.08-1.9,4.57-4.27,6.07-5.77.69-.69,1.38-2.31-1.5-.35-4.1,2.83-8.15,5.49-8.15,5.49a3.37,3.37,0,0,1-2.65.06C2.42,10.62.4,9.92.4,9.92s-1.38-.86,1-1.79Z"/></g></g></svg>